<?xml version="1.0" encoding="utf-8"?>
<!-- Generator: Adobe Illustrator 16.0.0, SVG Export Plug-In . SVG Version: 6.00 Build 0)  -->
<!DOCTYPE svg PUBLIC "-//W3C//DTD SVG 1.1//EN" "http://www.w3.org/Graphics/SVG/1.1/DTD/svg11.dtd">
<svg version="1.1" id="Layer_1" xmlns="http://www.w3.org/2000/svg" xmlns:xlink="http://www.w3.org/1999/xlink" x="0px" y="0px"
	 width="1080px" height="1080px" viewBox="0 0 1080 1080" enable-background="new 0 0 1080 1080" xml:space="preserve">
<g>
	<linearGradient id="SVGID_1_" gradientUnits="userSpaceOnUse" x1="394.146" y1="591.9541" x2="769.3125" y2="591.9541">
		<stop  offset="0" style="stop-color:#F7941E"/>
		<stop  offset="0.2258" style="stop-color:#F2AB42"/>
		<stop  offset="0.5" style="stop-color:#F9ED32"/>
		<stop  offset="0.8333" style="stop-color:#996C22"/>
		<stop  offset="1" style="stop-color:#FBB040"/>
	</linearGradient>
	<path fill-rule="evenodd" clip-rule="evenodd" fill="url(#SVGID_1_)" d="M767.99,548.679c-0.008-0.241-0.016-0.482-0.023-0.725
		c-0.467-1.048,0.041-2.216-0.401-3.267c-0.033-0.462-0.066-0.925-0.1-1.386c-0.533-0.984,0.113-2.135-0.437-3.117
		c-0.153-0.088-0.179-0.204-0.073-0.348c-0.533-0.973,0.188-2.158-0.522-3.101c0.005,0.008,0.006,0.017,0.011,0.024l-0.022-0.045
		c0.005,0.007,0.007,0.014,0.012,0.021c-0.452-0.794,0.138-1.772-0.44-2.545l0.001,0.008c-0.561-0.766,0.044-1.732-0.433-2.513
		c-0.686-2.417-1.559-4.793-1.605-7.349c-0.295-1.938-0.742-3.832-1.647-5.59c-0.641-2.816-2.072-5.407-2.374-8.321
		c-0.121-0.808-0.441-1.54-0.85-2.239c-1.207-3.13-2.414-6.261-3.62-9.392c-0.288-0.724-0.366-1.552-1.034-2.087
		c-4.285-9.059-9.129-17.798-14.858-26.033c0.118-0.922-0.348-1.474-1.149-1.813c-0.506-0.522-1.158-0.924-1.371-1.684
		c0.202-1.193-0.676-1.577-1.5-2c-0.533-0.658-1.066-1.316-1.6-1.974c-0.303-1.834-1.46-3.005-3.002-3.881
		c-0.475-0.224-0.791-0.59-0.963-1.083c-2.643-4.686-6.967-7.845-10.586-11.644c-0.396-0.424-0.891-0.691-1.422-0.902
		c-0.494-0.141-0.81-0.473-1.004-0.936c-0.158-1.128-1.175-1.204-1.943-1.584c-0.643,0.07-0.783-1.125-1.508-0.669
		c-0.76,0.477-0.362,1.323-0.439,2.015c1.14,0.575,0.59,1.625,0.598,2.44c0.074,7.771-0.977,15.412-2.961,22.914
		c-0.369,1.398-0.275,2.536,0.406,3.779c3.032,5.533,5.613,11.276,7.857,17.17c8.276,21.738,11.594,44.397,12.368,67.499
		c0.469,13.989-0.181,27.938-1.819,41.854c-1.812,15.381-5.079,30.396-10.533,44.9c-10.299,27.385-27.219,49.479-52.219,65.082
		c-24.843,15.503-52.43,21.93-81.173,24.37c-15.863,1.347-31.783,1.144-47.688,1.032c-15.239-0.106-30.492,0.573-45.715-0.402
		c-16.847-1.08-24.592-7.957-27.542-23.121c-1.482-7.619-1.697-15.358-1.7-23.092c-0.022-53.988-0.011-107.978-0.014-161.966
		c0-2.162,0.752-4.86-0.261-6.335c-1.021-1.487-3.939-0.877-6.044-1.067c-0.247-0.022-0.486-0.121-0.733-0.148
		c-7.708-0.873-15.076-3.049-22.295-5.798c-0.394-0.305-0.788-0.609-1.183-0.914c-0.152,0.026-0.303,0.057-0.453,0.092
		c-0.165-0.186-0.329-0.372-0.493-0.558c-0.388-0.062-0.726,0.11-0.692,0.483c0.215,2.345-0.485,4.622-0.485,6.942
		c-0.013,54.97-0.003,109.938-0.035,164.908c-0.001,2.059,1.033,4.059,0.276,6.138c0.004-0.006,0.006-0.012,0.01-0.018l-0.014,0.033
		c0.002-0.005,0.002-0.01,0.004-0.016c-0.557,0.813-0.232,1.73-0.275,2.598c-0.15,3.008,0.24,6.029-0.219,9.029
		c-0.039,0.78-0.078,1.561-0.117,2.34c-0.421,1.057,0.07,2.223-0.395,3.273l0.084,0.104l-0.078,0.11
		c-0.691,0.923,0.059,2.084-0.494,3.028c0,0,0-0.001,0-0.001l-0.013,0.029c0.006-0.009,0.007-0.02,0.013-0.028
		c-0.687,0.678,0.087,1.693-0.553,2.382c-0.509,1.866-1.018,3.732-1.526,5.599c-0.365,0.782-0.48,1.667-0.974,2.398
		c-2.314,5.138-5.893,9.081-10.968,11.61c-0.802,0.453-1.762,0.524-2.537,1.045c-1.642,1-3.556,1.027-5.347,1.496
		c-2.364,0.44-4.755,0.678-7.144,0.932c-1.656,0.257-3.316,0.279-4.979,0.078c-1.305,1.347-0.936,2.83-0.368,4.331
		c0.744,0.716,1.686,0.326,2.515,0.326c59.374,0.024,118.748,0.023,178.122,0.013c0.901-0.001,1.834,0.211,2.705-0.218
		c1.939-0.023,3.877-0.047,5.815-0.07c2.862-0.632,5.813,0.278,8.668-0.493l-0.032,0.012c3.512-0.332,7.049-0.386,10.533-1.011
		l-0.031,0.012c1.301-0.593,2.745,0.145,4.047-0.437c0.418-0.025,0.836-0.053,1.255-0.078c1.185-0.529,2.537,0.178,3.703-0.494
		c-0.004,0.001-0.008,0.001-0.012,0.002l0.034-0.012c-0.007,0.005-0.015,0.006-0.022,0.01c2.018-0.304,4.069-0.389,6.046-0.959
		l0.1-0.104l0.128,0.068c1.04-0.51,2.244,0.118,3.272-0.473l0.122-0.125l0.158,0.074c2.439-0.316,4.865-0.699,7.219-1.441
		c0.981-0.144,1.875-0.771,2.927-0.523c2.046-0.393,4.067-0.889,6.071-1.457c1.451-0.25,2.723-1.207,4.27-1.084
		c1.108-0.174,2.188-0.453,3.227-0.883c1.123-0.961,2.68-0.389,3.875-1.098c1.062-0.261,2.152-0.424,3.131-0.958
		c0.602-0.187,1.203-0.374,1.803-0.561c0.916-0.271,1.86-0.465,2.67-1.013c0.808-0.979,2.174-0.11,3.033-0.918
		c0.808-0.394,1.833-0.273,2.478-1.051c2.979-1.16,5.958-2.321,8.937-3.481c0.703-0.27,1.433-0.478,2.073-0.893
		c0.806-0.37,1.612-0.741,2.417-1.111c0.709-0.303,1.519-0.398,2.072-1.016c1.453-1.312,3.346-1.83,5.042-2.663
		c6.423-3.155,12.343-7.148,18.473-10.788c0.478-0.373,1.337-0.214,1.478-1.058c0.305-0.622,0.959-0.737,1.49-1.031
		c0.768-0.061,1.441-0.299,1.873-0.992c0.263-1.485,1.758-1.655,2.643-2.477c0.607,0.073,1.206,0.127,1.451-0.633
		c1.57-1.955,3.367-3.664,5.488-5.019c1.705-0.214,2.316-1.601,3.059-2.848c0.175-0.147,0.35-0.294,0.524-0.441
		c0.656-0.559,1.466-0.946,1.922-1.728c1.118-1.116,2.237-2.232,3.355-3.35c0.884-0.674,1.552-1.548,2.222-2.419
		c0.271-0.729,0.852-1.167,1.477-1.562c0.959-0.135,1.311-0.799,1.44-1.655c1.521-2.051,3.057-4.089,4.921-5.851
		c0.59-0.267,1.023-0.721,1.427-1.207c0.39-0.52,0.783-1.037,0.674-1.75c2.019-2.913,4.101-5.785,6.038-8.752
		c2.215-3.389,4.729-6.675,6.32-10.35c1.516-3.497,3.343-6.842,4.776-10.369c0.683-0.309,0.999-0.923,1.288-1.557
		c0.294-0.864,0.648-1.702,1.033-2.526c0.418-1.681,1.709-3.114,1.41-4.999c0.869-2.652,1.739-5.305,2.609-7.957
		c0.672-0.883,0.682-2.006,1.077-2.988c0.056-0.525-0.204-1.115,0.31-1.55c0.762-1.23,0.643-2.716,1.165-4.016
		c0.461-2.156,0.922-4.313,1.383-6.47c0.944-1.394,0.737-3.062,1.097-4.594c0.152-1.121-0.308-2.341,0.535-3.352
		c0.646-0.934-0.109-2.095,0.492-3.036l-0.008,0.019c0.667-0.95-0.077-2.126,0.494-3.093c-0.097-0.158-0.068-0.291,0.083-0.396
		c0.479-1.021-0.069-2.17,0.397-3.193c0.045-0.604,0.09-1.206,0.135-1.81c0.427-1.222-0.11-2.544,0.385-3.759l-0.088-0.113
		l0.086-0.114c0.74-1.808-0.129-3.756,0.488-5.573l-0.019,0.039c0.509-2.327,0.569-4.713,0.728-7.066
		c0.445-6.615-0.233-13.227-0.529-19.83C768.546,552.771,768.553,550.665,767.99,548.679z"/>
	<linearGradient id="SVGID_2_" gradientUnits="userSpaceOnUse" x1="394.5898" y1="741.0557" x2="394.6729" y2="741.0557">
		<stop  offset="0" style="stop-color:#F7941E"/>
		<stop  offset="0.2258" style="stop-color:#F2AB42"/>
		<stop  offset="0.5" style="stop-color:#F9ED32"/>
		<stop  offset="0.8333" style="stop-color:#996C22"/>
		<stop  offset="1" style="stop-color:#FBB040"/>
	</linearGradient>
	<path fill-rule="evenodd" clip-rule="evenodd" fill="url(#SVGID_2_)" d="M394.673,741.1c-0.003-0.008-0.006-0.016-0.009-0.024
		c-0.024-0.023-0.05-0.038-0.074-0.063L394.673,741.1z"/>
	<linearGradient id="SVGID_3_" gradientUnits="userSpaceOnUse" x1="383.2202" y1="417.7754" x2="813.7783" y2="417.7754">
		<stop  offset="0" style="stop-color:#F7941E"/>
		<stop  offset="0.2258" style="stop-color:#F2AB42"/>
		<stop  offset="0.5" style="stop-color:#F9ED32"/>
		<stop  offset="0.8333" style="stop-color:#996C22"/>
		<stop  offset="1" style="stop-color:#FBB040"/>
	</linearGradient>
	<path fill-rule="evenodd" clip-rule="evenodd" fill="url(#SVGID_3_)" d="M813.555,344.688c-0.654-1.171-1.309-2.342-1.963-3.513
		c0.12-0.947-0.32-1.568-1.14-1.972c-0.283-0.064-0.476-0.192-0.367-0.528c0.125-0.826-0.247-1.493-0.691-2.136
		c-0.412-0.497-0.658-1.168-1.397-1.32c-4.238-5.232-8.245-10.673-13.509-14.98c-0.486-1.123-1.277-1.997-2.238-2.731
		c-0.348-0.239-0.712-0.452-1.051-0.702c-0.668-0.498-1.248-1.173-2.21-1.065c-1.35-0.956-2.699-1.913-4.05-2.869
		c-1.287-1.556-2.787-2.737-4.93-2.773c-0.507-0.287-1.014-0.573-1.521-0.859c-0.781-0.935-1.722-1.552-2.998-1.498
		c-1.176-0.475-2.354-0.949-3.53-1.423c-0.729-0.671-1.724-0.711-2.576-1.088c-3.144-0.796-6.288-1.591-9.432-2.387
		c-1.578-0.795-3.342-0.744-5.016-1.103l0.042,0.02c-1.318-0.788-2.842,0.064-4.186-0.521c-0.928-0.022-1.855-0.044-2.784-0.065
		c-3.333-0.38-6.665-0.374-9.997-0.004c-1.111,0.021-2.223,0.043-3.332,0.064c-4.575,0.367-9.186,0.412-13.678,1.514
		c-0.894,0.659-1.921,0.471-2.92,0.461c-2.231,0.265-4.384,0.901-6.565,1.398c-1.281-0.058-2.286,0.765-3.452,1.094
		c-6.484,1.833-12.907,3.848-19.029,6.718c-3.137,1.47-6.311,2.858-9.468,4.284c-0.478,0.369-1.173,0.41-1.501,1.001
		c-2.022,1.258-3.991,2.616-6.08,3.751c-3.122,1.697-5.658,4.284-8.921,5.749c-1.202,0.59-2.536,1.02-2.997,2.498
		c-2.986,2.682-6.371,4.904-9.128,7.847c-0.937,1-1.7,0.804-2.768,0.151c-3.542-2.167-7.157-4.214-10.743-6.306
		c-0.597-1.274-1.658-1.657-2.975-1.553c-1.648-0.747-3.297-1.493-4.945-2.24c-0.658-1.087-1.739-1.432-2.894-1.649
		c-0.772-0.142-1.464-0.527-2.216-0.728c-1.868-0.506-3.737-1.011-5.391-2.075c-0.71-0.716-1.501-1.174-2.554-0.809
		c-2.506-0.806-5.012-1.612-7.518-2.418c-0.986-0.941-2.373-0.718-3.516-1.208c-4.16-0.937-8.321-1.874-12.482-2.811
		c-0.64-0.994-1.762-0.109-2.52-0.647l0.049,0.022c-0.799-0.728-1.873-0.057-2.72-0.54c-0.247-0.021-0.494-0.042-0.741-0.063
		c-0.939-0.592-2.076,0.105-3.021-0.457c-3.519-0.773-7.088-1.18-10.674-1.481c-0.436-0.025-0.871-0.05-1.307-0.076
		c-1.518-0.588-3.155,0.125-4.678-0.425l-0.177,0.081l-0.142-0.132c-3.6-0.205-7.172-0.752-10.79-0.765
		c-2.302-0.009-4.616,0.25-6.909-0.177c-2.68,0.195-5.357,0.214-8.036-0.014c-1.052,0.375-2.143,0.213-3.213,0.199
		c-6.881-0.092-13.723,0.436-20.55,1.229c-0.454,0.023-0.908,0.046-1.361,0.069c-1.503,0.597-3.152-0.216-4.645,0.479l-0.106,0.101
		l-0.128-0.07c-2.416,0.295-4.863,0.376-7.228,1.031l0.046-0.02c-0.813,0.438-1.759-0.056-2.573,0.369
		c-0.413,0.04-0.826,0.079-1.239,0.118c-0.861,0.451-1.903-0.121-2.737,0.483c0.006-0.001,0.011-0.002,0.017-0.003l-0.029,0.01
		c0.004-0.003,0.008-0.004,0.012-0.007c-1.678,0.319-3.384,0.484-5.031,0.962c-0.91,0.451-1.862,0.674-2.881,0.544
		c-2.071,0.336-4.093,0.886-6.115,1.431c-0.788,0.375-1.588,0.694-2.49,0.562c-0.634,0.319-1.42,0.015-2.016,0.49
		c-2.251,0.681-4.502,1.363-6.753,2.044c-0.951,0.16-1.81,0.614-2.736,0.856c-1.119,0.377-2.238,0.753-3.357,1.13
		c-0.898,0.275-1.795,0.552-2.651,0.944c-2.168,0.833-4.337,1.665-6.506,2.498c-0.779,0.463-1.696,0.583-2.494,1
		c-0.326,0.17-0.652,0.34-0.978,0.51c-1.188,0.479-2.362,0.993-3.526,1.527c-5.035,2.388-9.974,4.967-14.67,7.963
		c-6.526,4.164-12.906,8.54-18.457,13.998c-0.671,0.562-1.277,1.19-1.873,1.829c-0.392,0.39-0.784,0.78-1.176,1.17
		c-0.628,0.59-1.24,1.198-1.824,1.833c-5.387,5.165-9.776,11.104-13.763,17.391c-4.139,6.528-7.438,13.424-9.78,20.784
		c-0.457,0.977-0.624,2.041-0.927,3.064c0.097,0.172,0.067,0.318-0.089,0.438c-0.391,0.994-0.657,2.023-0.879,3.066l0.021-0.039
		c-0.638,1.298-0.747,2.729-1.028,4.116c0.117,0.133,0.102,0.25-0.045,0.349c-0.596,0.751,0.1,1.759-0.497,2.511l0.001-0.002
		c-0.579,0.777,0.043,1.768-0.458,2.559l0.018-0.039c-0.761,1.094,0.089,2.434-0.542,3.548c0.101,0.16,0.081,0.302-0.06,0.428
		c-0.545,1.378,0.114,2.878-0.428,4.257c0.244,0.92,0.196,1.833-0.063,2.742c-0.377,2.997-0.329,5.995-0.018,8.993
		c0.284,0.94,0.305,1.889,0.093,2.845c0.577,1.512-0.216,3.162,0.47,4.663l0.12,0.121l-0.08,0.15
		c0.488,1.004-0.183,2.201,0.518,3.17c-0.005-0.009-0.006-0.019-0.011-0.028l0.022,0.047c-0.004-0.006-0.006-0.013-0.011-0.019
		c0.424,0.805-0.105,1.76,0.396,2.553c0.407,2.358,0.509,4.783,1.522,7.01c0.269,1.012,0.524,2.029,0.957,2.988
		c0.191,2.761,1.664,5.094,2.541,7.626c0.516,0.716,0.59,1.617,0.998,2.378c0.142,0.816,0.39,1.583,1,2.184
		c0.414,0.548,0.547,1.239,0.919,1.808c4.48,10.052,11.086,18.545,19.084,26.016c0.15,0.722,0.949,0.58,1.327,0.997
		c0.224,0.209,0.448,0.418,0.671,0.627c0.472,0.503,0.879,1.087,1.597,1.284c-0.008-0.009-0.018-0.017-0.026-0.026l0.031,0.029
		c-0.002,0-0.003-0.002-0.005-0.002c0.527,0.621,1.244,1.024,1.822,1.586c2.366,2.028,5.033,3.619,7.665,5.259
		c0.891,1.607,2.472,2.203,4.071,2.773c1.063,0.321,2.184,0.448,3.184,0.97c1.055,0.528,2.109,1.056,3.165,1.584
		c0.246,0.01,0.518-0.045,0.734,0.04c16.125,6.409,32.746,7.626,49.67,4.325c16.675-3.253,30.615-11.354,41.021-24.913
		c15.023-19.576,20.643-41.836,18.07-66.245c-0.436-4.133-1.565-8.146-3.75-11.764c-1.09-1.804-2.852-2.22-4.545-1.36
		c-1.602,0.813-2.349,2.476-1.353,4.241c3.313,5.873,3.769,12.322,3.803,18.816c0.064,12.361-2.375,24.268-7.383,35.556
		c-5.534,12.475-13.361,23.21-25.181,30.492c-14.812,9.125-31.024,11.802-48.112,9.727c-19.297-2.343-35.61-10.784-48.021-25.659
		c-19.409-23.261-24.483-50.007-17.395-79.229c1.413-5.824,1.572-5.869,7.613-5.584c6.382,0.301,12.533,1.573,17.866,5.372
		c6.392,4.552,9.005,11.289,10.42,18.623c1.87,9.693,1.808,19.529,1.873,29.339c0.089,13.414,0.012,26.83,0.046,40.244
		c0.002,0.837-0.487,1.854,0.519,2.513c0.001-0.001,0.002-0.003,0.004-0.004c-0.001-0.001-0.002-0.001-0.004-0.002
		c0-0.006,0-0.012,0-0.018c-0.007,0.002-0.012,0.004-0.019,0.006c0.008-0.007,0.012-0.014,0.019-0.021c0,0.005,0,0.01,0,0.015
		c0.012-0.003,0.019-0.008,0.031-0.011c-0.01,0.01-0.016,0.021-0.027,0.031c9.047,5.76,19.051,8.637,29.609,9.911
		c1.802,0.217,1.966-0.553,1.963-2.046c-0.042-18.915-0.067-37.83-0.012-56.745c0.024-8.234,0.401-16.441,2.087-24.556
		c2.467-11.874,9.873-18.835,21.865-20.729c5.884-0.929,11.77-0.966,17.672-0.879c26.143,0.389,52.307-0.984,78.432,0.918
		c14.52,1.057,28.804,3.503,42.786,7.571c19.886,5.786,38.213,14.632,54.189,27.995c2.775,2.322,5.437,4.78,8.31,7.315
		c0.712-5.501,0.78-10.795,0.832-16.101c0.019-1.81-0.53-2.796-2.107-3.712c-34.197-19.861-71.428-29.014-110.597-29.438
		c-59.071-0.639-118.154-0.18-177.231-0.188c-0.86,0-1.721,0-2.722,0c0.196-0.612,0.252-0.845,0.342-1.064
		c9.407-22.994,25.846-39.578,47.215-51.607c21.473-12.087,44.863-17.92,69.12-20.653c12.732-1.435,25.52-2.104,38.359-1.688
		c9.983,0.325,19.899,1.094,29.793,2.498c22.038,3.127,42.681,10.122,61.828,21.529c1.705,1.016,1.371,1.475,0.276,2.607
		c-11.401,11.796-22.486,23.875-32.575,36.832c-2.202,2.828-4.28,5.752-6.519,8.773c2.057,0.33,3.684,0.609,5.317,0.848
		c2.124,0.309,4.689,1.442,6.261,0.643c1.705-0.867,2.494-3.544,3.666-5.441c8.365-13.549,17.371-26.589,29.071-37.575
		c1.505-1.413,2.316-1.456,3.77-0.178c2.434,2.14,5.15,3.964,7.537,6.15c13.681,12.526,24.885,26.757,30.232,44.892
		c4.646,15.756,4.842,31.737,2.345,47.866c-2.839,18.332-9.245,35.248-19.905,50.461c-7.83,11.175-17.543,20.327-30.37,25.426
		c-10.731,4.266-22.043,5.38-33.545,4.251c-13.264-1.302-25.391-4.703-32.414-17.557c-0.908-1.662-2.469-1.843-4.116-1.267
		c-1.624,0.567-1.898,1.907-1.829,3.441c0.047,1.045,0.475,1.914,0.979,2.787c2.151,3.735,5.035,6.855,8.424,9.44
		c9.745,7.433,21.166,9.576,33.033,10.063c13.57,0.557,26.582-2.481,39.239-6.913c22.389-7.839,39.059-22.26,48.873-44.089
		c3.924-8.73,6.225-17.962,7.523-27.441c0.672-4.267,0.747-8.57,0.49-12.858c-0.135-2.257-0.195-4.471,0.207-6.696
		c-0.014-0.297-0.054-0.585-0.135-0.873c-0.458-1.276-0.292-2.6-0.34-3.908c-0.02-0.495-0.08-0.982-0.201-1.463
		c-0.307-0.867-0.337-1.778-0.455-2.676c-0.044-0.217-0.098-0.43-0.174-0.639c-0.273-0.707-0.268-1.461-0.4-2.19
		c-0.046-0.21-0.097-0.419-0.164-0.624c-0.207-0.744-0.203-1.524-0.398-2.27c-0.214-0.785-0.256-1.604-0.473-2.389
		c-0.582-1.596-0.908-3.266-1.424-4.881c-0.37-1.155-0.611-2.347-1.02-3.49c-0.384-1.014-0.709-2.047-1.028-3.082
		c-0.759-2.165-1.733-4.247-2.497-6.411c-0.552-1.192-1.18-2.352-1.553-3.62c-2.001-5.186-4.895-9.926-7.397-14.862
		c-0.493-0.933-1.13-1.78-1.608-2.721c-3.705-6.534-7.776-12.813-12.814-18.421c-0.456-0.492-0.786-1.079-1.221-1.587
		c-0.663-0.711-1.372-1.377-2.041-2.082c-0.826-0.829-1.705-1.607-2.439-2.524c-0.522-0.691-0.969-1.448-1.69-1.97
		c-0.833-0.505-1.556-1.141-2.22-1.848c-0.229-0.229-0.457-0.46-0.695-0.681c-0.393-0.385-0.766-0.791-1.145-1.187
		c-2.332-2.24-4.928-4.167-7.395-6.247c-0.598-0.505-1.525-0.827-1.25-1.921c0.339-0.597,0.967-0.855,1.479-1.251
		c1.213-1.141,2.527-2.162,3.821-3.208c10.156-8.209,21.192-14.953,33.249-20.006c0.85-0.392,1.705-0.77,2.615-0.998
		c1.384-0.337,2.713-0.823,3.99-1.452c0.969-0.439,1.984-0.744,3.004-1.033c1.154-0.34,2.331-0.601,3.47-0.994
		c1.034-0.379,2.069-0.751,3.181-0.831c2.211-0.545,4.463-0.921,6.647-1.581c0.816-0.356,1.695-0.346,2.555-0.45
		c0.25-0.036,0.499-0.085,0.74-0.16c1.005-0.337,2.063-0.188,3.087-0.343c0.271-0.039,0.542-0.09,0.805-0.168
		c2.874-0.385,5.763-0.644,8.66-0.854c7.471-0.539,14.92-0.796,22.292,0.945c1.003,0.513,2.077,0.697,3.194,0.7
		c1.262-0.078,2.443,0.146,3.488,0.896c2.723,1.029,5.42,2.131,8.229,2.921c0.764,0.133,1.514,0.303,2.189,0.706
		c0.189,0.105,0.38,0.208,0.578,0.296c0.595,0.262,1.125,0.618,1.588,1.072c1.569,1.063,3.203,2.019,4.909,2.848
		c0.608,0.198,1.216,0.396,1.746,0.769c0.181,0.113,0.372,0.205,0.575,0.27c1.49,1.054,2.979,2.106,4.469,3.16
		c0.268,0.564,0.558,1.108,1.207,1.325c2.348,1.241,3.769,3.529,5.797,5.131c0.605,1.169,1.491,2.094,2.528,2.885
		c3.511,3.993,6.804,8.134,8.952,13.06c-0.152,0.673,0.053,1.167,0.72,1.427c1.165,0.295,0.936,2.088,2.313,2.156
		c1.254,0.312,2.449,0.306,3.477-0.633c0.36-0.486,0.721-0.973,1.082-1.46C813.835,346.343,813.865,345.514,813.555,344.688z"/>
	<linearGradient id="SVGID_4_" gradientUnits="userSpaceOnUse" x1="583.9688" y1="314.2153" x2="583.9922" y2="314.2153">
		<stop  offset="0" style="stop-color:#F7941E"/>
		<stop  offset="0.2258" style="stop-color:#F2AB42"/>
		<stop  offset="0.5" style="stop-color:#F9ED32"/>
		<stop  offset="0.8333" style="stop-color:#996C22"/>
		<stop  offset="1" style="stop-color:#FBB040"/>
	</linearGradient>
	<path fill-rule="evenodd" clip-rule="evenodd" fill="url(#SVGID_4_)" d="M583.969,314.211c0.006,0.003,0.012,0.004,0.018,0.008
		c0.002,0,0.004,0,0.006,0.001L583.969,314.211z"/>
	<linearGradient id="SVGID_5_" gradientUnits="userSpaceOnUse" x1="267.5552" y1="603.7236" x2="267.5703" y2="603.7236">
		<stop  offset="0" style="stop-color:#F7941E"/>
		<stop  offset="0.2258" style="stop-color:#F2AB42"/>
		<stop  offset="0.5" style="stop-color:#F9ED32"/>
		<stop  offset="0.8333" style="stop-color:#996C22"/>
		<stop  offset="1" style="stop-color:#FBB040"/>
	</linearGradient>
	<path fill-rule="evenodd" clip-rule="evenodd" fill="url(#SVGID_5_)" d="M267.555,603.741c0.006-0.01,0.008-0.021,0.015-0.031
		c0-0.002,0-0.003,0-0.004L267.555,603.741z"/>
	<linearGradient id="SVGID_6_" gradientUnits="userSpaceOnUse" x1="385.46" y1="718.6387" x2="385.4893" y2="718.6387">
		<stop  offset="0" style="stop-color:#F7941E"/>
		<stop  offset="0.2258" style="stop-color:#F2AB42"/>
		<stop  offset="0.5" style="stop-color:#F9ED32"/>
		<stop  offset="0.8333" style="stop-color:#996C22"/>
		<stop  offset="1" style="stop-color:#FBB040"/>
	</linearGradient>
	<path fill-rule="evenodd" clip-rule="evenodd" fill="url(#SVGID_6_)" d="M385.489,718.634c-0.005,0.002-0.011,0.003-0.017,0.005
		c-0.004,0.002-0.009,0.003-0.013,0.006L385.489,718.634z"/>
	<linearGradient id="SVGID_7_" gradientUnits="userSpaceOnUse" x1="267.5654" y1="637.6309" x2="267.583" y2="637.6309">
		<stop  offset="0" style="stop-color:#F7941E"/>
		<stop  offset="0.2258" style="stop-color:#F2AB42"/>
		<stop  offset="0.5" style="stop-color:#F9ED32"/>
		<stop  offset="0.8333" style="stop-color:#996C22"/>
		<stop  offset="1" style="stop-color:#FBB040"/>
	</linearGradient>
	<path fill-rule="evenodd" clip-rule="evenodd" fill="url(#SVGID_7_)" d="M267.583,637.652c0-0.001,0-0.001,0-0.002
		c-0.007-0.014-0.009-0.027-0.017-0.04L267.583,637.652z"/>
	<linearGradient id="SVGID_8_" gradientUnits="userSpaceOnUse" x1="266.2212" y1="617.4268" x2="425.8115" y2="617.4268">
		<stop  offset="0" style="stop-color:#F7941E"/>
		<stop  offset="0.2258" style="stop-color:#F2AB42"/>
		<stop  offset="0.5" style="stop-color:#F9ED32"/>
		<stop  offset="0.8333" style="stop-color:#996C22"/>
		<stop  offset="1" style="stop-color:#FBB040"/>
	</linearGradient>
	<path fill-rule="evenodd" clip-rule="evenodd" fill="url(#SVGID_8_)" d="M403.01,714.173l0.124-0.128l0.165,0.066
		c0.935-0.195,1.806-0.586,2.706-0.887c2.514-1.531,5.291-2.467,8.006-3.543c0.638-0.367,1.392-0.489,1.991-0.938
		c2.776-1.59,5.445-3.375,8.422-4.595c0.61-0.205,0.941-0.733,1.044-1.266c0.459-2.392,0.456-4.8-0.003-7.196
		c-0.016-0.08-0.282-0.1-0.446-0.127c-6.478,4.175-13.112,8.053-20.408,10.661c-0.866,0.298-1.727,0.616-2.598,0.901
		c-4.479,1.928-9.229,2.936-13.936,4.085c-0.785,0.548-1.784-0.089-2.568,0.463c-1.096,0.462-2.241,0.612-3.422,0.541
		c-2.678,0.415-5.388,0.573-8.064,1.003l0.021-0.007c-5.761,0.402-11.523,0.351-17.285,0.021l-0.14,0.073l-0.11-0.113
		c-3.579-0.392-7.146-0.871-10.701-1.448c-1.699,0.177-3.282-0.341-4.872-0.817c-1.146-1.054-2.699-0.746-4.022-1.207
		c-0.164,0.098-0.302,0.068-0.412-0.087c-0.987-0.448-2.051-0.632-3.087-0.912c-1.187,0.039-2.197-0.53-3.262-0.925
		c-36.503-13.521-54.965-46.561-57.059-80.966c-0.648-10.658,0.274-21.235,2.948-31.614c6.454-25.058,20.193-44.905,42.225-58.743
		c4.918-3.089,10.161-5.521,15.63-7.615c4.555-1.745,9.173-3.05,13.86-4.242c1.422-0.291,2.84-0.601,4.252-0.943
		c1.113-0.253,2.188-0.752,3.376-0.533c2.356-0.396,4.749-0.538,7.089-1.038l-0.043,0.021c1.656-0.563,3.43,0.204,5.078-0.452
		c0.445-0.254,0.898-0.197,1.354-0.033c4.306-0.342,8.612-0.353,12.918,0.009c0.752-0.307,1.495-0.267,2.229,0.059
		c2.207,0.229,4.398,0.573,6.596,0.872c-0.012-0.012-0.025-0.018-0.037-0.031l0.05,0.033c-0.004,0-0.009-0.001-0.013-0.002
		c0.731,0.763,1.79,0.04,2.578,0.544c1.443,0.381,2.887,0.763,4.33,1.145c0.93,0.333,1.903,0.532,2.814,0.921
		c0.373,0.752,1.265-0.05,1.685,0.562c0.606,0.438,1.351,0.576,1.996,0.931v0c0.534,0.483,1.267,0.602,1.844,1.005
		c2.762,1.789,5.519,3.59,7.607,6.199c0.548,0.684,1.283,1.008,2.049,1.315c0.835,0.238,1.675,0.554,2.446-0.163
		c0.503-0.456,1.006-0.912,1.508-1.368c0.378-1.158,0.687-2.313-0.111-3.432c-2.3-3.388-5.745-5.492-8.893-7.929
		c-0.433-0.744-1.328-0.691-1.939-1.13c-2.351-0.961-4.703-1.922-7.054-2.884c-0.883-0.76-2.043-0.725-3.071-1.068
		c-1.558,0.086-3.01-0.351-4.441-0.897c-0.678-0.863-1.763-0.019-2.508-0.599l0.036,0.016c-0.973-0.672-2.159-0.001-3.159-0.504
		c-0.44-0.031-0.88-0.062-1.32-0.092c-1.818-0.571-3.736,0.163-5.553-0.424l0.034,0.016c-3.488-0.523-6.978-0.437-10.469-0.044
		l0.005-0.001c-2.303,0.678-4.702-0.159-7.009,0.45c-0.617,0.03-1.234,0.06-1.851,0.089c-1.329,0.587-2.823-0.227-4.137,0.487
		l0.023-0.008c-0.939,0.594-2.099-0.16-3.028,0.493l0.012-0.004c-0.935,0.614-2.092-0.141-3.025,0.489
		c-3.647,0.839-7.294,1.677-10.941,2.516c-1.547,0.396-3.077,0.846-4.555,1.456c-0.598,0.197-1.195,0.394-1.793,0.59
		c-0.933,0.24-1.854,0.515-2.713,0.964c-0.704,0.627-1.628,0.699-2.471,0.976c-0.8,0.448-1.744,0.542-2.529,1.028
		c-2.727,1.327-5.506,2.557-8.168,4.001c-7.062,3.832-13.579,8.44-19.437,13.959c-0.507,0.417-0.971,0.878-1.394,1.38
		c-5.271,4.75-9.666,10.24-13.609,16.11c-0.667,0.221-0.475,0.997-0.892,1.379c-0.991,1.478-2.071,2.902-2.957,4.44
		c-3.091,5.368-5.585,11.027-7.756,16.816c-1.872,4.994-3.385,10.107-4.302,15.378c-0.527,0.804,0.067,1.798-0.442,2.605
		c-0.031,0.3-0.063,0.599-0.094,0.898c-0.45,0.79,0.071,1.733-0.385,2.522c-1.454,7.265-1.537,14.602-1.152,21.964
		c0.002,0.172,0.004,0.343,0.007,0.514c-0.245,3.885,0.543,7.665,1.158,11.463c0.431,0.796-0.079,1.735,0.38,2.525
		c0.031,0.291,0.063,0.582,0.093,0.873c0.506,0.815-0.125,1.836,0.475,2.635c0.827,4.357,1.829,8.666,3.552,12.773
		c0.217,0.943,0.525,1.855,0.947,2.727c0.326,0.869,0.651,1.737,0.978,2.606c0.434,1.156,0.992,2.259,1.485,3.39
		c1.543,4.168,3.896,7.893,6.231,11.644c3.386,5.438,7.111,10.585,11.782,15.003c0.745,0.822,1.497,1.639,2.324,2.381
		c3.659,4.021,8.019,7.219,12.474,10.244c3.669,2.492,7.48,4.819,11.713,6.313c0.912,0.547,1.913,0.916,2.846,1.421
		c1.937,0.549,3.484,2.146,5.645,2.094c0.591,0.824,1.659,0.399,2.372,0.905c1.049,0.917,2.379,0.815,3.63,1.004
		c0.891,1.166,2.355,0.37,3.404,0.995c2.286,0.848,4.685,1.137,7.085,1.421c0.94,0.742,2.122-0.015,3.099,0.498
		c-0.015-0.011-0.031-0.015-0.045-0.025l0.048,0.026c-0.001-0.001-0.002-0.001-0.003-0.001c1.09,0.77,2.429-0.068,3.544,0.532
		c0.625,0.039,1.249,0.078,1.874,0.116c1.366,0.466,2.828-0.134,4.19,0.38c0.436-0.191,0.87-0.213,1.299,0.021
		c3.995,0.511,7.996,0.333,11.997,0.086c0.584-0.307,1.184-0.354,1.801-0.107c1.366-0.506,2.826,0.07,4.198-0.367
		c0.64-0.038,1.279-0.076,1.919-0.115c2.184-0.341,4.415-0.375,6.553-1.01c0.776-0.528,1.779,0.132,2.539-0.48
		c3.979-0.999,7.959-1.999,11.939-2.998C400.971,714.833,402.056,714.706,403.01,714.173z"/>
	<linearGradient id="SVGID_9_" gradientUnits="userSpaceOnUse" x1="467.8389" y1="536.2354" x2="607.3623" y2="536.2354">
		<stop  offset="0" style="stop-color:#F7941E"/>
		<stop  offset="0.2258" style="stop-color:#F2AB42"/>
		<stop  offset="0.5" style="stop-color:#F9ED32"/>
		<stop  offset="0.8333" style="stop-color:#996C22"/>
		<stop  offset="1" style="stop-color:#FBB040"/>
	</linearGradient>
	<path fill-rule="evenodd" clip-rule="evenodd" fill="url(#SVGID_9_)" d="M472.853,661.146c1.145-1.319,2.272-2.655,3.374-4.011
		c17.808-21.913,33.187-45.456,46.996-70.055c20.317-36.194,36.948-74.147,53.481-112.147c6.877-15.806,13.627-31.669,20.989-47.26
		c3.112-6.591,6.368-13.115,9.67-19.899c-2.005-0.303-3.729-0.561-5.454-0.826c-1.801-0.276-3.693-0.296-5.378-0.899
		c-2.468-0.883-3.502,0.345-4.731,2.148c-22.891,33.598-41.313,69.62-57.803,106.676c-10.795,24.26-21.256,48.668-32.092,72.91
		c-9.141,20.448-18.776,40.673-31.198,59.396c-2.04,3.074-3.095,6.043-2.825,9.689c0.227,3.076,0.047,6.182,0.047,9.846
		C469.888,664.502,471.385,662.837,472.853,661.146z"/>
</g>
</svg>
